# xmcd CD database file generated by OrangeCD 5.2
#
# Track frame offsets:
#	150
#	11527
#	24254
#	38124
#	50223
#	62706
#	75517
#	90013
#	101987
#	114800
#	126300
#	140424
#	152948
#	163861
#
# Disc length: 2381 seconds
#
# Revision: 1
# Processed by: cddbd v1.5.1PL0 Copyright (c) Steve Scherf et al.
# Submitted via: OrangeCD 5.2
#
DISCID=ad094b0e
DTITLE=Ari Jónsson - Allt sem þú ert
DYEAR=1997
DGENRE=Danseband
TTITLE0=Augun þín sál mína seiða
TTITLE1=Ég stekk upp á dekk
TTITLE2=Vetur og vor
TTITLE3=Á Hawaii
TTITLE4=Vinur í raun
TTITLE5=Velkomin heim
TTITLE6=Allt sem þú ert
TTITLE7=Hæ og hó
TTITLE8=Sumarnóttin syngur
TTITLE9=Í kvöld er ball í bænum
TTITLE10=Þrjár rauðar rósir
TTITLE11=Syngjum nú
TTITLE12=Það er sveitaball í kvöld
TTITLE13=Draumurinn
EXTD=
EXTT0=
EXTT1=
EXTT2=
EXTT3=
EXTT4=
EXTT5=
EXTT6=
EXTT7=
EXTT8=
EXTT9=
EXTT10=
EXTT11=
EXTT12=
EXTT13=
PLAYORDER=
